<?xml version="1.0" encoding="utf-8"?>
<!-- Generator: Adobe Illustrator 23.0.0, SVG Export Plug-In . SVG Version: 6.00 Build 0)  -->
<svg version="1.1" id="Layer_1" xmlns="http://www.w3.org/2000/svg" xmlns:xlink="http://www.w3.org/1999/xlink" x="0px" y="0px"
	 viewBox="0 0 1601.6 1122.6" style="enable-background:new 0 0 1601.6 1122.6;" xml:space="preserve">
<style type="text/css">
	.st0{fill:#F4F4F4;}
	.st1{fill:#2E43CE;}
	.st2{fill:#0C0C0C;}
	.st3{opacity:0.33;fill:url(#SVGID_1_);enable-background:new    ;}
	.st4{fill:#FFFFFF;}
</style>
<title>hero</title>
<g>
	<g>
		<path class="st0" d="M1264.4,527.1c-4,2.9-80.7,57.2,34.1,113.3c54.1,26.4,94.1,22.1,120.1,7.1c29.1-16.8,40.4-47.1,33.8-62.2
			C1435.1,546.3,1335.9,485.8,1264.4,527.1z"/>
		<path class="st0" d="M330.1,370.6c-24.9,14.4-49,30.3-72.1,47.5C-57.6,653.1,643.8,1031,917.9,1031c108.2,0,192.7-27,255.3-63.2
			c95.9-55.3,140.6-132.1,140.7-165.5c0.8-131.3-308.2-119.5-247.1-254c62-136.6-151.9-230.2-163.1-235
			C889.7,307.7,622,202.1,330.1,370.6z"/>
	</g>
	<path class="st1" d="M1392.3,444c-1.9-3-4.2-5.9-6.8-8.3c-3-2.8-6.3-5.3-9.8-7.3l0,0l-34.8-20.1l-34.8-20.1l-34.9-20.1l-34.8-20.1
		l-34.8-20.1l-34.9-20.1l-34.8-20.1l-34.8-20.1l-34.9-20.1l-34.8-20.1l0,0c-12-6.5-25.5-9.8-39.2-9.6c-6.8,0-13.7,0.7-20.3,2.2
		c-3.9,0.9-7.8,2.2-11.5,3.7c-2.5,1-4.9,2.2-7.3,3.6l0,0l-77.9,45.3l-77.9,45.3l-78,45.1l-77.9,45.3l-77.9,45.3l-77.9,45.3
		l-77.9,45.3l-77.9,45.3l-77.9,45.3L170,679.9c0.8-0.5,1.8-0.7,2.7-0.7c-1,0-1.9,0.2-2.7,0.7c-3.5,2-6.7,4.4-9.6,7.2
		c-5.2,4.9-9,11.1-11.1,17.9c-1.1,3.7-1.6,7.5-1.6,11.3v4.2c0,7,1.8,14,5.3,20.1c1.8,3.1,4.1,6,6.6,8.6c3.2,3.1,6.7,5.9,10.6,8.1
		l0,0l34.9,20.1l34.8,20.1l34.8,20.1l34.9,20.1l34.8,20.1l34.8,20.1l34.9,20.1l34.8,20.1l34.8,20.1l34.9,20.1l0,0
		c12,6.5,25.5,9.8,39.1,9.6c6.8,0,13.7-0.7,20.3-2.2c3.9-0.9,7.8-2.2,11.5-3.7c2.5-1,5-2.2,7.3-3.6c0.3-0.2,0.7-0.4,1-0.7
		c-0.3,0.3-0.6,0.5-1,0.7l77.9-45.3l77.9-45.3l77.9-45.3l77.9-45.3l77.9-45.3l77.9-45.3l77.9-45.3L1220,596l78-45l77.9-45.3l0,0
		c6.5-3.6,12.1-8.8,16.1-15.1c2-3.1,3.5-6.5,4.6-10.1c1-3.6,1.6-7.3,1.6-11.1v-4.3C1398.1,457.7,1396.1,450.4,1392.3,444z
		 M951.8,226.5c-0.9,0-1.7,0.2-2.5,0.6C950.1,226.7,950.9,226.5,951.8,226.5L951.8,226.5z M165.9,688.8c-0.7,0.9-1.3,1.9-1.9,3
		C164.6,690.7,165.2,689.7,165.9,688.8z M162.4,702.2c0.3,1.8,0.9,3.5,1.7,5.2C163.3,705.7,162.7,704,162.4,702.2L162.4,702.2z
		 M514.3,949c0.1,1.1,0.2,2.3,0.5,3.4C514.6,951.2,514.4,950.1,514.3,949L514.3,949z M553.4,927.9c6,0.3,11.9,0,17.8-1
		C565.3,927.9,559.4,928.2,553.4,927.9L553.4,927.9z M540.1,926c2.7,0.6,5.5,1.1,8.2,1.4C545.5,927.1,542.8,926.6,540.1,926z
		 M1369.9,428.8l-348.4-201.2c-6.2-3.4-12.9-5.8-19.9-6.9c-4.4-0.8-8.9-1.1-13.4-1.1c4.5,0,9,0.4,13.4,1.1c7,1.1,13.7,3.4,19.9,6.9
		c0.9-0.5,1.8-0.8,2.8-1c-1,0.1-2,0.4-2.8,1L1369.9,428.8c9.2,5.3,13.9,12.3,13.9,19.3c0-7.1-4.7-14.1-13.9-19.4V428.8z"/>
	<path class="st2" d="M1369.9,428.7c18.4,10.6,18.5,27.9,0.2,38.6L591.1,920c-18.3,10.7-48.2,10.6-66.7,0L176.1,719
		c-18.5-10.6-18.6-28-0.2-38.6l779-452.7c18.3-10.7,48.2-10.7,66.6,0L1369.9,428.7z"/>
	
		<linearGradient id="SVGID_1_" gradientUnits="userSpaceOnUse" x1="1296.2675" y1="-162.7581" x2="104.6824" y2="-127.8123" gradientTransform="matrix(1 0 0 1 0 610.5946)">
		<stop  offset="0" style="stop-color:#3333FF"/>
		<stop  offset="1" style="stop-color:#2222C6;stop-opacity:0"/>
	</linearGradient>
	<path class="st3" d="M1369.9,318.1c18.4,10.6,18.5,27.9,0.2,38.6l-779,452.7c-18.3,10.7-48.2,10.6-66.7,0L176.1,608.3
		c-18.5-10.6-18.6-28-0.2-38.6l779-452.7c18.3-10.7,48.2-10.7,66.6,0L1369.9,318.1z"/>
	<path class="st4" d="M855.9,501.5L774,512l-5.8,38l-66.9-5.1l4.3-26.6c-35.6-1.2-66.7-9.4-93.2-24.7l-0.9-0.5
		c-12.8-7.1-24.1-16.5-33.4-27.8c-7.5-8.9-12-19.9-13.1-31.4c-0.6-11.2,2.6-22.2,9-31.4c7-10.6,17.9-20.1,31.8-28
		c17.7-9.8,37-16.4,57-19.5c22.9-3.8,46.2-4.5,69.3-2.2c1.9-7,4.9-13.7,9.1-19.6c4.9-6.8,11.3-12.3,18.6-16.3
		c10.3-5.9,21.3-10.2,32.8-12.9c12.4-2.9,25-4.3,37.8-4.1c13,0.2,26,1.8,38.6,4.8c12.1,2.9,23.7,7.4,34.5,13.5l1,0.6
		c19.2,11.1,30.1,22.5,32.8,34.3c2.8,11.5-0.2,23.3-8.5,33.9l-64.4-11.6c3.9-4.2,6.2-9.6,6.4-15.3c0-5.2-3.6-10.2-10-13.8l-1-0.6
		c-7.6-4.4-16.3-6.7-25.1-6.6c-8.3-0.2-16.6,1.9-23.8,5.9c-3.7,1.9-6.7,4.8-8.9,8.4c-1.8,3.5-3.1,7.2-3.7,11.1l-18.1,109.9l61.6-8.5
		L855.9,501.5z M661.4,467.6c15.2,8.8,32.5,13.5,50.1,13.7l14.7-92.1c-12.6-1.1-25.2-0.4-37.6,2c-10.8,1.9-21.2,5.6-30.7,11
		c-7.2,3.8-13.4,9.3-18,16c-3.4,5.2-4.9,11.4-4.2,17.6c0.9,6.4,3.6,12.4,7.8,17.2c5.1,6,11.2,11,18.1,14.8"/>
</g>
</svg>
