<?xml version="1.0" encoding="utf-8"?>
<!-- Generator: Adobe Illustrator 23.0.0, SVG Export Plug-In . SVG Version: 6.00 Build 0)  -->
<svg version="1.1" id="Layer_1" xmlns="http://www.w3.org/2000/svg" xmlns:xlink="http://www.w3.org/1999/xlink" x="0px" y="0px"
	 viewBox="0 0 446.5 67.4" style="enable-background:new 0 0 446.5 67.4;" xml:space="preserve">
<style type="text/css">
	.st0{fill:#2E43CE;}
</style>
<title>logo</title>
<path d="M0,33.7c0-2.9,0.5-5.9,1.5-8.6c1-2.6,2.4-4.9,4.3-7c1.9-2,4.1-3.6,6.6-4.6c2.7-1.1,5.6-1.7,8.5-1.7c2.2,0,4.3,0.3,6.3,1
	c2,0.8,3.9,1.9,5.5,3.4v-3.6h10.5v42.1H32.9v-3.6c-1.6,1.5-3.5,2.6-5.5,3.4c-2,0.7-4.2,1-6.4,1c-2.9,0-5.8-0.5-8.5-1.7
	c-2.5-1.1-4.8-2.6-6.7-4.6c-1.9-2-3.3-4.4-4.3-7C0.5,39.6,0,36.6,0,33.7z M22.4,45.8c0.9,0,1.7-0.1,2.6-0.3c0.9-0.2,1.9-0.5,2.7-0.9
	c1-0.5,1.9-1,2.7-1.7c0.9-0.8,1.8-1.6,2.5-2.6V27.2c-0.7-1-1.6-1.8-2.5-2.6c-0.8-0.7-1.7-1.2-2.7-1.7c-0.9-0.4-1.8-0.7-2.7-0.9
	c-0.9-0.2-1.7-0.3-2.6-0.3c-1.6,0-3.1,0.3-4.5,0.9c-1.4,0.6-2.6,1.4-3.7,2.5c-1.1,1.1-1.9,2.4-2.5,3.8c-1.2,3.1-1.2,6.5,0,9.6
	c0.6,1.4,1.4,2.7,2.5,3.8c1,1.1,2.3,1.9,3.7,2.5C19.2,45.4,20.8,45.8,22.4,45.8z"/>
<path d="M51.9,12.6h10.5v3.9c1.3-1.5,2.9-2.7,4.7-3.5c1.9-0.8,4-1.3,6.1-1.2c2.5-0.1,5,0.6,7.2,1.9c2,1.2,3.7,2.9,5,4.9
	c2.7-4.3,7.5-6.8,12.6-6.7c2.4,0,4.8,0.5,7.1,1.5c2,0.9,3.7,2.3,5.1,4c1.4,1.7,2.5,3.6,3.1,5.7c0.7,2.1,1,4.4,1,6.6v25.2h-10.4V30.2
	c0-1.2-0.2-2.3-0.6-3.5c-0.4-1-0.9-1.9-1.6-2.7c-0.7-0.7-1.5-1.3-2.5-1.7c-2-0.8-4.2-0.8-6.2,0c-0.9,0.4-1.7,1-2.4,1.7
	c-0.7,0.8-1.3,1.6-1.6,2.6c-0.4,1-0.6,2.1-0.6,3.2v25H77.9V30.2c0-1.2-0.2-2.3-0.6-3.5c-0.4-1-0.9-1.9-1.6-2.7
	c-0.7-0.7-1.5-1.3-2.5-1.7c-1-0.4-2-0.6-3.1-0.6c-1.1,0-2.1,0.2-3.1,0.6c-0.9,0.4-1.8,1-2.5,1.8c-0.7,0.8-1.3,1.7-1.6,2.7
	c-0.4,1.1-0.6,2.2-0.6,3.4v24.6H51.9V12.6z"/>
<path d="M165.7,33.7c0,2.9-0.5,5.9-1.5,8.6c-1,2.6-2.4,5-4.3,7c-1.9,2-4.1,3.6-6.6,4.7c-2.7,1.1-5.6,1.7-8.5,1.7
	c-2.2,0-4.3-0.3-6.4-1c-2-0.8-3.9-1.9-5.5-3.4v16.1h-10.5V12.6h10.5v3.6c1.6-1.5,3.5-2.6,5.6-3.4c2.1-0.7,4.2-1,6.4-1
	c2.9,0,5.8,0.5,8.5,1.7c2.5,1.1,4.8,2.7,6.6,4.6c1.9,2,3.3,4.4,4.3,7C165.2,27.9,165.7,30.8,165.7,33.7z M143.4,21.7
	c-0.9,0-1.7,0.1-2.6,0.3c-0.9,0.2-1.9,0.5-2.7,0.9c-0.9,0.5-1.8,1-2.7,1.7c-0.9,0.8-1.8,1.6-2.5,2.6v13.1c0.7,1,1.6,1.8,2.5,2.6
	c0.8,0.7,1.7,1.3,2.7,1.7c0.9,0.4,1.8,0.7,2.7,0.9c0.9,0.2,1.7,0.3,2.6,0.3c1.6,0,3.1-0.3,4.5-0.9c1.4-0.6,2.6-1.5,3.6-2.6
	c1.1-1.1,1.9-2.4,2.4-3.8c1.2-3.1,1.2-6.5,0-9.6c-0.6-1.4-1.4-2.7-2.4-3.8c-1-1.1-2.3-1.9-3.7-2.5C146.5,21.9,144.9,21.6,143.4,21.7
	z"/>
<path d="M191.6,55.6c-2.9,0-5.8-0.6-8.4-1.7c-5.3-2.2-9.5-6.4-11.8-11.6c-1.2-2.8-1.8-5.7-1.8-8.7c0-3,0.6-5.9,1.8-8.6
	c1.1-2.6,2.8-4.9,4.8-6.9c2-2,4.4-3.5,7-4.6c2.7-1.1,5.6-1.7,8.5-1.7c3,0,5.9,0.5,8.7,1.7c2.6,1.1,5,2.6,7,4.6c2,2,3.6,4.3,4.7,6.9
	c1.1,2.7,1.7,5.6,1.7,8.5v3.4h-32.9c0.3,1.2,0.9,2.4,1.6,3.5c0.7,1.1,1.5,2,2.5,2.8c1,0.8,2,1.4,3.2,1.8c1.2,0.4,2.5,0.7,3.8,0.7
	c1.9,0,3.8-0.5,5.5-1.4c1.7-0.9,3.1-2.1,4.2-3.7l9.2,4.4c-1,1.6-2.1,3.1-3.4,4.4c-1.3,1.3-2.8,2.4-4.5,3.3c-1.7,0.9-3.5,1.6-5.3,2.1
	C195.6,55.4,193.6,55.6,191.6,55.6z M191.8,21.1c-1.2,0-2.5,0.2-3.6,0.6c-1.1,0.4-2.2,0.9-3.1,1.6c-1,0.7-1.8,1.6-2.5,2.6
	c-0.7,1-1.3,2.2-1.6,3.4h21.8c-0.3-1.2-0.9-2.4-1.6-3.5c-0.7-1-1.5-1.8-2.5-2.5c-1-0.7-2-1.3-3.2-1.6
	C194.3,21.3,193.1,21.1,191.8,21.1z"/>
<path d="M219.3,12.6h10.4V17c1.2-1.6,2.7-2.9,4.4-3.8c2-1,4.2-1.4,6.5-1.4h1.1v10.6h-3c-1.3,0-2.7,0.2-3.9,0.7
	c-1.1,0.4-2,1.1-2.8,1.9c-0.8,0.8-1.3,1.8-1.7,2.9c-0.4,1.2-0.6,2.4-0.6,3.6v23.3h-10.5V12.6z"/>
<path d="M262.5,55.6c-3.3,0-6.6-0.4-9.8-1.3c-2.7-0.8-5.3-1.9-7.8-3.3l-1.2-0.8l5.2-8.1l1.6,0.8c0.7,0.4,1.6,0.8,2.5,1.2
	c1,0.4,2,0.8,3,1.1c1.1,0.4,2.2,0.6,3.3,0.8c1.2,0.2,2.4,0.3,3.6,0.3c1.6,0.1,3.2-0.2,4.7-0.9c1-0.4,1.6-1.4,1.6-2.5
	c0-0.7-0.2-1.4-0.7-1.9c-0.6-0.6-1.3-1-2-1.2c-1-0.4-2.1-0.7-3.1-1c-1.3-0.3-2.6-0.6-4.2-1c-2-0.5-3.9-1.1-5.8-1.9
	c-1.6-0.7-3.1-1.6-4.4-2.8c-1.2-1-2.1-2.3-2.8-3.7c-0.7-1.5-1-3.2-1-4.8c0-1.7,0.4-3.3,1.2-4.8c0.8-1.6,2-3,3.4-4.2
	c1.6-1.3,3.4-2.3,5.4-2.9c2.3-0.7,4.8-1.1,7.2-1.1c3,0,6,0.3,8.9,1c2.3,0.5,4.5,1.3,6.6,2.3l1.9,0.9l-5.1,7.7l-1.7-0.6
	c-0.6-0.3-1.2-0.5-1.8-0.7c-0.8-0.3-1.6-0.5-2.5-0.7s-1.9-0.4-3-0.6c-1.1-0.2-2.2-0.2-3.3-0.3c-0.8,0-1.6,0.1-2.3,0.2
	c-0.7,0.1-1.4,0.3-2,0.6c-0.5,0.2-1,0.6-1.4,1c-0.4,0.4-0.5,0.9-0.5,1.5c0,0.5,0.1,1,0.5,1.4c0.4,0.5,0.9,0.8,1.4,1.1
	c0.8,0.4,1.6,0.7,2.4,0.9c1,0.3,2.2,0.6,3.5,0.9c2.2,0.5,4.3,1.1,6.4,1.8c1.8,0.6,3.6,1.4,5.2,2.5c1.4,1,2.6,2.2,3.5,3.7
	c0.9,1.7,1.3,3.5,1.3,5.4c0,1.9-0.4,3.7-1.2,5.4c-0.8,1.7-2,3.2-3.5,4.3c-1.7,1.3-3.6,2.2-5.6,2.8C267.6,55.3,265.1,55.6,262.5,55.6
	z"/>
<path d="M284.1,33.7c0-2.9,0.5-5.9,1.5-8.6c1-2.6,2.4-4.9,4.3-7c1.9-2,4.1-3.6,6.6-4.6c2.7-1.1,5.6-1.7,8.5-1.7c2.2,0,4.3,0.3,6.4,1
	c2,0.8,3.9,1.9,5.5,3.4v-3.6h10.5v42.1H317v-3.6c-1.6,1.5-3.5,2.6-5.5,3.4c-2,0.7-4.2,1-6.4,1c-2.9,0-5.8-0.5-8.5-1.7
	c-2.5-1.1-4.8-2.6-6.6-4.6c-1.9-2-3.4-4.4-4.3-7C284.6,39.6,284,36.6,284.1,33.7z M306.4,45.8c0.9,0,1.7-0.1,2.6-0.3
	c0.9-0.2,1.9-0.5,2.7-0.9c1-0.5,1.9-1,2.7-1.7c0.9-0.8,1.8-1.6,2.5-2.6V27.2c-0.7-1-1.6-1.8-2.5-2.6c-0.8-0.7-1.7-1.2-2.7-1.7
	c-0.9-0.4-1.8-0.7-2.7-0.9c-0.9-0.2-1.7-0.3-2.6-0.3c-1.6,0-3.1,0.3-4.5,0.9c-1.4,0.6-2.6,1.4-3.7,2.5c-1.1,1.1-1.9,2.4-2.5,3.8
	c-1.2,3.1-1.2,6.5,0,9.6c0.6,1.4,1.4,2.7,2.4,3.8c1,1.1,2.3,1.9,3.7,2.5C303.3,45.4,304.8,45.8,306.4,45.8z"/>
<path d="M336,12.6h10.5v3.5c1.4-1.4,3-2.4,4.8-3.1c2-0.8,4.1-1.2,6.2-1.1c2.5,0,5,0.5,7.3,1.5c2.1,1,4,2.4,5.5,4.1
	c1.6,1.8,2.8,3.9,3.6,6.1c0.9,2.4,1.3,5,1.3,7.6v23.7h-10.5v-24c0-1.2-0.2-2.4-0.7-3.6c-0.4-1.1-1.1-2.1-1.9-2.9
	c-1.7-1.7-4-2.7-6.4-2.7c-1.2,0-2.4,0.2-3.5,0.7c-1.1,0.5-2.1,1.2-2.9,2c-0.8,0.9-1.5,1.9-1.9,3c-0.5,1.1-0.7,2.3-0.7,3.5v24H336
	V12.6z"/>
<path d="M380.6,33.7c0-2.9,0.5-5.9,1.5-8.6c1-2.6,2.4-4.9,4.3-7c1.9-2,4.1-3.6,6.6-4.6c2.7-1.1,5.6-1.7,8.5-1.7c2.2,0,4.3,0.3,6.4,1
	c2,0.7,3.9,1.9,5.5,3.3V0h10.5v54.8h-10.5v-3.5c-1.6,1.5-3.5,2.6-5.5,3.3c-2.1,0.7-4.2,1-6.4,1c-2.9,0-5.8-0.5-8.5-1.7
	c-2.5-1.1-4.8-2.6-6.6-4.6c-1.9-2-3.3-4.4-4.3-7C381.1,39.6,380.6,36.6,380.6,33.7z M402.9,45.8c0.9,0,1.7-0.1,2.6-0.3
	c0.9-0.2,1.9-0.5,2.7-0.9c1-0.5,1.9-1,2.7-1.7c0.9-0.8,1.8-1.6,2.5-2.6V27.2c-0.7-1-1.6-1.8-2.5-2.6c-0.8-0.7-1.7-1.2-2.7-1.7
	c-0.9-0.4-1.8-0.7-2.7-0.9c-0.9-0.2-1.7-0.3-2.6-0.3c-1.6,0-3.1,0.3-4.5,0.9c-1.4,0.6-2.6,1.4-3.7,2.5c-1.1,1.1-1.9,2.4-2.5,3.8
	c-1.2,3.1-1.2,6.5,0,9.6c0.6,1.4,1.4,2.7,2.5,3.8c1,1.1,2.3,2,3.7,2.6C399.8,45.5,401.4,45.8,402.9,45.8z"/>
<path class="st0" d="M438.9,55.6c-1,0-2.1-0.2-3-0.6c-0.9-0.4-1.7-0.9-2.5-1.6c-0.7-0.7-1.3-1.5-1.6-2.5c-0.4-1-0.6-2-0.6-3.1
	c0-1,0.2-2,0.6-2.9c0.4-0.9,1-1.7,1.6-2.4c1.4-1.4,3.4-2.2,5.5-2.2c1,0,2,0.2,2.9,0.6c0.9,0.4,1.7,0.9,2.4,1.6
	c0.7,0.7,1.3,1.5,1.7,2.4c0.4,0.9,0.6,1.9,0.6,2.9c0,2.1-0.8,4.1-2.3,5.5c-0.7,0.7-1.5,1.2-2.4,1.6
	C440.9,55.4,439.9,55.6,438.9,55.6z"/>
</svg>
